<?xml version="1.0" encoding="utf-8"?>
<!-- Generator: Adobe Illustrator 15.1.0, SVG Export Plug-In  -->
<!DOCTYPE svg PUBLIC "-//W3C//DTD SVG 1.1//EN" "http://www.w3.org/Graphics/SVG/1.1/DTD/svg11.dtd" [
	<!ENTITY ns_flows "http://ns.adobe.com/Flows/1.0/">
]>
<svg version="1.1"
	 xmlns="http://www.w3.org/2000/svg" xmlns:xlink="http://www.w3.org/1999/xlink" xmlns:a="http://ns.adobe.com/AdobeSVGViewerExtensions/3.0/"
	 x="0px" y="0px" width="128px" height="85px" viewBox="-9.799 -10.191 128 85" enable-background="new -9.799 -10.191 128 85"
	 xml:space="preserve">
<defs>
</defs>
<linearGradient id="SVGID_1_" gradientUnits="userSpaceOnUse" x1="24.0239" y1="3.0425" x2="85.0808" y2="64.0994">
	<stop  offset="0" style="stop-color:#FF00AE"/>
	<stop  offset="1" style="stop-color:#6800FF"/>
</linearGradient>
<path fill="url(#SVGID_1_)" d="M9.189,67.708L9.189,67.708C4.121,67.708,0,63.588,0,58.525V9.184C0,4.124,4.121,0,9.189,0h91.299
	c5.063,0,9.182,4.124,9.182,9.184v30.278c-0.043,3.935-1.418,7.382-4.082,10.281c-1.566,1.708-6.361,6.457-9.861,9.923
	c-1.205,1.197-2.252,2.236-2.951,2.934c-3.373,3.373-7.146,5.082-11.227,5.082C80.436,67.682,9.189,67.708,9.189,67.708z"/>
<path fill="#FFFFFF" d="M64.674,3.273c2.504,1.955,2.988,4.158,2.715,6.311c-0.301,2.41-2.066,4.646-3.248,6.558
	c-0.459,0.753-0.898,1.462-1.273,2.189c-1.373,2.634-1.186,4.831-1.111,5.712c0.146,1.792,0.896,4.049,0.896,4.049
	s-1.4-0.405-3.01-1.728c-1.113-0.919-2.566-3.073-3.66-4.957c-3.455-5.944-7.555-10.161-12.178-12.534
	c-3.293-1.69-7.352-2.618-11.428-2.618c-1.32,0-2.643,0.095-3.93,0.284c-5.607,0.831-10.73,3.845-14.051,8.265
	c-1.705,2.279-3.037,4.675-3.959,7.129c-0.92,2.443-1.436,4.957-1.539,7.472c-0.186,4.415,1.115,9.1,3.855,13.945
	C16.645,50.2,22.76,55.64,29.531,58.278c8.797,3.418,17.637,3.813,28.168,1.485c4.91-1.088,9.225-1.507,13.736,0.04
	c2.779,0.96,6.084,3.164,8.23,4.631c-1.744,0-3.766,0-5.992,0c-1.24-0.805-3.496-1.91-4.633-2.196
	c-3.787-0.943-7.254-0.171-11.285,0.628c-5.814,1.164-11.002,1.673-15.918,1.306c-4.498-0.329-8.877-1.349-13.393-3.104
	c-3.979-1.543-7.67-3.893-10.971-6.966c-2.865-2.665-5.396-5.871-7.324-9.277C7.129,39.492,5.695,34.263,5.9,29.282
	c0.119-2.836,0.701-5.658,1.73-8.398c1.021-2.721,2.49-5.37,4.369-7.876c3.787-5.05,9.623-8.492,16.01-9.431
	c1.115-0.17,2.254-0.272,3.395-0.304h1.961c4.254,0.133,8.313,1.141,11.811,2.934c2.662,1.364,5.168,3.265,7.455,5.65
	c2.129,2.221,4.133,4.925,5.947,8.042c0.137,0.24,0.271,0.461,0.408,0.676c0.186-1.102,0.549-2.34,1.221-3.629
	c0.426-0.822,0.914-1.611,1.385-2.375c1.248-2.024,2.492-3.643,2.307-5.721c-0.184-2.096-1.43-4.262-4.074-5.578H64.674z"/>
<path fill="#FFFFFF" d="M16.852,3.24c-3.129,1.112-5.309,3.775-5.309,3.775s-0.078-2.248-0.758-3.8L16.852,3.24z"/>
<path fill="#FFFFFF" d="M25.854,64.434c-2.328,0-4.496,0-6.449,0c-1.746-1.047-3.426-2.203-5.021-3.467
	C9.701,57.262,5.955,52.83,3.295,47.895v-7.66C6.998,52.049,16.164,60.178,25.854,64.434z"/>
<path fill="#FFFFFF" d="M58.109,11.864c-0.01-0.023-2.074-2.604-4.018-4.372c-2.313-2.1-4.27-3.361-6.021-4.219H54
	c0.82,0.481,2.047,1.243,3.063,2.048c0.896,0.71,1.662,1.402,2.094,2.084C60.955,10.242,58.109,11.864,58.109,11.864z"/>
<path fill="#FFFFFF" d="M106.404,9.184c0,0,0,0.49,0,1.341c-2.063-2.032-4.572-3.315-7.506-3.832
	c-4.662-0.826-8.438-0.42-10.785,0.062C85.568,7.277,84.1,8.009,84.09,8.016l-0.76,0.388l-0.721-0.446
	c-3.064-1.819-6.396-1.93-8.195-1.551C74.68,7.869,74.711,8.961,74.625,10c2.156,0.22,5.068,0.961,6.771,1.95
	c0.715,0.417,1.619,1.02,2.443,1.691c1.195-1.233,2.869-2.204,4.949-2.831c2.191-0.668,4.686-0.906,6.668-0.643
	c2.928,0.391,5.207,1.202,6.967,2.495c2.355,1.723,3.654,4.226,3.854,7.431c0.154,2.505-0.221,4.737-1.117,6.627
	c-1.691,3.577-5.668,6.068-10.502,6.645c-1.262,3.146-3.035,6.05-5.059,8.267c-0.24,0.316-1.338,1.732-2.838,3.367
	c0.42-0.113,0.863-0.238,1.313-0.395c4.111-1.371,7.164-3.721,9.072-6.977l0.369-0.632l0.723-0.095
	c0.063-0.006,4.66-0.675,8.166-4.213c0,1.45,0,2.786,0,3.932c-0.594,0.434-1.227,0.824-1.891,1.185
	c-2.145,1.178-4.121,1.712-5.146,1.929c-2.295,3.577-5.895,6.226-10.439,7.747c-3.105,1.044-6.01,1.192-6.137,1.192l-3.867,0.25
	c0,0,2.432-1.689,5.658-5.713c1.455-1.813,2.834-3.915,3.957-5.654c1.359-2.105,2.336-3.758,3.059-5.601l0.984-2.567
	c0,0,1.193,0.388,1.889,0.49c3.172,0.464,6.66-1.653,7.979-4.44c0.68-1.432,0.959-3.164,0.834-5.158
	c-0.26-4.16-2.865-6.432-8.223-7.14c-2.93-0.393-8.084,0.621-9.744,3.472l-1.027,1.766l-1.373-1.509
	c-0.668-0.73-1.854-1.644-3.029-2.327c-1.9-1.11-5.051-1.666-6.484-1.691c-1.418-0.021-2.658,0.199-2.658,0.199l0.502-1.941
	c0,0,0.635-2.872-0.561-5.401l-0.67-1.455c0,0,2.33-0.995,5.66-0.995c3.328,0,5.908,0.723,7.816,1.744
	c1.293-0.528,4.141-1.489,8.16-1.729h3.797c1.248,0.074,2.574,0.223,3.969,0.469c2.215,0.394,4.236,1.146,6.049,2.257
	C106.063,6.918,106.404,8.016,106.404,9.184z"/>
<path fill="#FFFFFF" d="M3.422,9.184v10.883c0.371-1.21,0.846-2.435,1.336-3.699c0.82-2.109,1.67-4.294,2.025-6.529
	c0.346-2.131,0.188-4.066-0.457-5.89C4.6,4.941,3.422,6.911,3.422,9.184z"/>
<path fill="#FFFFFF" d="M93.609,20.279c-2.033,0.228-2.674,1.474-5.76,9.157l-0.111,0.279c-1.541,3.84-4.531,9.513-10.008,14.701
	c-5.889,5.583-13.295,9.347-22.023,11.204c-8.27,1.76-16.426,1.308-23.576-1.294c-6.602-2.399-12.064-6.579-15.379-11.773
	c-2.408-3.771-3.621-7.987-3.502-12.186c0.133-4.508,1.727-8.838,4.742-12.862c2.652-3.539,6.494-5.738,11.111-6.358
	c0.863-0.113,1.748-0.173,2.635-0.173c3.389,0,6.879,0.838,10.061,2.433c2.361,1.185,4.512,2.827,6.396,4.875
	c1.404,1.519,2.678,3.278,3.902,5.39c5.939,10.202,15.389,10.462,21.678,7.591c2.805-1.28,4.172-4.012,4.283-6.155
	c0.092-1.809-0.635-3.316-2.002-4.125c-2.646-1.571-4.676-0.896-5.689,0.255c-0.889,1.02-1.271,2.805-0.17,4.05
	c0.426,0.489,1.313,0.36,1.695,0.251c0.9-0.251,1.551-2.195,1.551-2.195s0.811,0.43,1.148,1.144c0.51,1.086,0.561,2.774-1.475,3.667
	c-2.121,0.934-4.248,0.637-5.467-0.914c-1.896-2.417-1.561-5.665,0.463-7.976c1.063-1.21,2.807-2.208,4.979-2.208
	c1.35,0,2.873,0.386,4.494,1.351c1.201,0.708,2.156,1.75,2.748,3.008c0.541,1.144,0.791,2.481,0.717,3.858
	c-0.195,3.708-2.563,7.13-6.025,8.713c-3.865,1.767-8.377,2.294-12.365,1.453c-2.525-0.534-4.879-1.598-6.992-3.162
	c-2.361-1.75-4.436-4.137-6.158-7.1c-1.604-2.752-4.285-6.697-9.057-9.089c-6.174-3.1-15.084-3.418-20.063,3.212
	c-5.123,6.836-5.529,14.721-1.113,21.642c5.422,8.479,18.592,15.399,35.805,11.741c19.215-4.079,26.965-16.84,29.877-24.084
	l0.111-0.281c1.533-3.821,2.547-6.351,3.605-7.999c1.205-1.894,2.582-2.796,4.598-3.019c2.074-0.234,3.914,0.555,4.91,2.104
	c0.883,1.382,1.094,3.122,0.297,4.449c-0.441,0.73-1.061,1.336-1.875,1.585c-3.184,0.966-3.426-1.828-3.426-1.828
	c1.414,0.283,2.357-0.159,2.666-1.011c0.143-0.376,0.078-1.162-0.191-1.573C95.285,20.437,94.553,20.172,93.609,20.279z"/>
<path fill="#FFFFFF" d="M79.313,53.028c-0.551,0.539-1.766,1.186-2.623,1.758c3.398,1.571,7.297,4.089,11.158,7.631
	c-1.195,0.717-1.572,1.05-3.102,1.479c-4.098-3.642-8.393-6.275-11.9-7.243l-3.629-0.995c0,0,3.32-1.345,5.566-2.877
	C74.783,52.781,77.834,53.071,79.313,53.028z"/>
<path fill="#FFFFFF" d="M39.061,41.527c0,0-2.355-0.273-4.504-1.75c-2.148-1.479-4.297-3.278-5.746-6.496
	c-0.375-0.829-0.797-2.482-0.582-3.575c0.258-1.273,1.119-2.427,2.311-3.082c1.295-0.713,2.84-0.787,4.348-0.204
	c1.959,0.755,3.209,2.944,4.031,4.396c0.084,0.133,0.154,0.271,0.23,0.39c1.281,2.217,2.758,4.25,4.377,6.052l0.012,0.015
	c3.828,4.329,9.514,7.23,11.664,7.96l5.258,1.774l-5.436,1.112c-0.178,0.039-4.473,0.902-9.287,0.686
	c-6.365-0.281-10.729-1.392-15.064-3.84c-3.533-2.004-6.807-5.585-8.527-9.354c-0.748-1.64-1.127-3.687-1.059-5.771
	c0.076-2.341,0.701-4.521,1.811-6.306c1.359-2.183,4.105-4.817,9.461-4.969H32.4c2.584,0,4.891,0.962,6.033,1.541
	c3.701,1.854,5.869,5.07,7.188,7.334c4.402,7.566,11.25,11.718,19.791,12.108c2.934,0.13,7.385-0.52,7.385-0.52
	s-2.902,2.948-7.486,3.51h-0.012c-4.709-0.193-8.998-1.432-12.748-3.689c-3.84-2.314-7.043-5.646-9.52-9.904
	c-1.125-1.93-2.955-4.665-5.939-6.16c-0.904-0.456-2.711-1.218-4.67-1.221c-3.225,0.094-5.57,1.29-6.979,3.546
	c-1.799,2.896-1.637,6.926-0.576,9.254c1.473,3.222,4.266,6.283,7.283,7.993c3.889,2.195,7.859,3.195,13.717,3.454
	c1.254,0.057,2.477,0.03,3.586-0.035c-2.695-1.577-5.764-3.812-8.158-6.516c-1.754-1.959-3.35-4.156-4.744-6.544
	c-0.072-0.13-0.15-0.271-0.236-0.422c-0.572-1.009-1.543-2.706-2.504-3.074c-0.684-0.264-1.313-0.254-1.828,0.033
	c-0.416,0.227-0.727,0.624-0.811,1.038c-0.035,0.283,0.119,1.198,0.369,1.759c0.762,1.694,2.916,4.404,3.891,5.513
	C36.406,38.66,39.061,41.527,39.061,41.527z"/>
<path fill="#FFFFFF" d="M102.939,47.768c-0.426,0.438-1.432,1.476-1.432,1.476c-2.164-0.397-3.572-1.339-3.572-1.339
	c1.896-1.491,2.949-2.903,2.951-2.911l0.92-1.527c0,0,2.984-0.504,4.412-2.028c0.021-0.021-0.127,0.591-0.102,0.574
	c-0.494,1.837-0.738,2.888-2.75,5.287c-0.023,0.008-0.047,0.014-0.068,0.018C103.201,47.442,103.078,47.591,102.939,47.768z"/>
<path fill="#FFFFFF" d="M91.295,59.463c-1.936-1.096-4.402-2.865-6.074-4.436c-1.127-1.07-2.336-1.805-2.336-1.805
	s1.684-0.194,3.471-0.52c1.783-0.32,5.115-1.301,7.473-2.479l0.809-0.419l0.975,0.77c0.074,0.049,1.07,0.954,2.984,1.602
	c-0.732,0.775-1.566,1.625-2.256,2.275c-0.697-0.289-1.281-0.738-1.674-0.958c-1.477,0.682-3.021,1.204-4.613,1.58
	c0.938,0.702,2.105,1.476,3.408,2.157C92.635,58.086,91.893,58.854,91.295,59.463z"/>
<path fill="#FFFFFF" d="M12.117,64.434c-1.855,0-2.912,0-2.912,0c-3.266,0-5.92-2.65-5.92-5.916v-2.989
	C5.268,58.821,7.918,61.41,12.117,64.434z"/>
</svg>
