<?xml version="1.0" encoding="UTF-8" standalone="no"?>
<svg width="24px" height="19px" viewBox="0 0 24 19" version="1.1" xmlns="http://www.w3.org/2000/svg" xmlns:xlink="http://www.w3.org/1999/xlink">
    <!-- Generator: Sketch 39 (31667) - http://www.bohemiancoding.com/sketch -->
    <title>noun_255174_cc</title>
    <desc>Created with Sketch.</desc>
    <defs></defs>
    <g id="Page-1" stroke="none" stroke-width="1" fill="none" fill-rule="evenodd">
        <g id="Desktop-HD-Copy-6" transform="translate(-45.000000, -507.000000)" fill="#0B5CBB">
            <g id="Group-5-Copy" transform="translate(28.000000, 459.000000)">
                <g id="payment">
                    <g id="noun_255174_cc" transform="translate(17.000000, 48.000000)">
                        <path d="M23.996967,12.7194121 C23.9266595,11.5855039 23.6722104,9.48654727 23.3302099,8.22563202 C23.1578116,7.58999709 21.9640889,7.00392157 21.0163356,6.37126579 C20.7560199,6.19750267 20.3831004,2.95167645 20.3831004,2.95167645 L20.3668936,2.88072508 C20.1514669,2.07096498 19.4045603,0.70598634 17.8539519,0.386617232 C16.4330287,0.0939466943 14.0189446,-1.77635684e-15 12.411226,-1.77635684e-15 L11.349842,-1.77635684e-15 C9.84490563,-1.77635684e-15 7.32303704,0.0939466943 5.94794837,0.380141717 C4.36753943,0.709068934 3.6029212,2.04541463 3.39052442,2.89413126 C3.39052442,2.89413126 2.9713941,6.25913386 2.73377203,6.4336521 C1.82951486,7.09777516 0.846338408,7.42807817 0.636432641,8.22563202 C0.347882111,9.32198022 0.0596162688,11.585959 0.00207900855,12.7194121 C-0.0497645133,13.7408367 0.874725761,14.5905981 2.02157686,14.7603063 L2.02157686,18.2101216 C2.02157686,18.9206491 2.66577252,19 3.46074041,19 C4.25538295,19 4.89974129,18.9206387 4.89974129,18.2101216 L4.89974129,14.9586267 C4.89974129,14.9586267 10.3551764,15.5917273 12.1875333,15.5864 C13.9274279,15.5813934 19.1027921,14.9586267 19.1027921,14.9586267 L19.1027921,18.2101216 C19.1027921,18.9206491 19.7469878,19 20.5419557,19 C21.3365982,19 21.9809566,18.9206387 21.9809566,18.2101216 L21.9809566,14.7598201 C23.126069,14.5889844 24.0602082,13.7393679 23.996967,12.7194121 L23.996967,12.7194121 Z M6.06395829,1.4983784 C7.24207411,1.05409184 9.93404313,0.877442678 11.3498522,0.877442678 L12.4112362,0.877442678 C13.6459437,0.877442678 16.3227227,0.974399556 17.6569384,1.49207874 C18.4258371,1.79040759 18.7105241,2.65932659 18.8213283,3.34507953 C18.8213283,3.34507953 19.0656201,5.01077656 18.96296,5.56349179 C18.927486,5.75447812 18.9138719,6.09362548 18.3863673,6.07375413 C16.4135886,5.99942018 13.0882624,5.82591567 11.6793366,5.82819141 C10.3091487,5.83050853 6.97501744,6.074261 5.20803689,6.09000498 C4.80153447,6.09362548 4.77760044,5.73684113 4.75668612,5.56349179 C4.68892046,5.00165291 4.94197663,3.33844885 4.94197663,3.33844885 C5.04555183,2.86621206 5.2895692,1.79040759 6.06395829,1.4983784 L6.06395829,1.4983784 Z M3.82582089,11.7932789 C2.88485944,11.7932789 2.12199,11.0171377 2.12199,10.0598062 C2.12199,9.10264024 2.88485944,8.32633353 3.82582089,8.32633353 C4.76678233,8.32633353 5.84992456,9.79877883 5.84992456,10.7562655 C5.84992456,11.7137522 4.76678233,11.7932789 3.82582089,11.7932789 L3.82582089,11.7932789 Z M11.9996094,13.8207566 C9.72544896,13.8207566 7.88181646,12.5736303 7.88181646,11.5451819 C7.88181646,10.516899 9.72544896,9.93130967 11.9996094,9.93130967 C14.2737699,9.93130967 16.1172397,10.5168887 16.1172397,11.5451819 C16.1172397,12.5736303 14.2737699,13.8207566 11.9996094,13.8207566 L11.9996094,13.8207566 Z M20.3460809,11.9313129 C19.4051195,11.9313129 18.3219772,11.851631 18.3219772,10.8942995 C18.3219772,9.93681282 19.4051195,8.46436752 20.3460809,8.46436752 C21.2871949,8.46436752 22.0499118,9.24067423 22.0499118,10.1978402 C22.0499118,11.1550062 21.287205,11.9313129 20.3460809,11.9313129 L20.3460809,11.9313129 Z" id="Shape"></path>
                    </g>
                </g>
            </g>
        </g>
    </g>
</svg>