<?xml version="1.0" encoding="UTF-8" standalone="no"?>
<svg width="14px" height="24px" viewBox="0 0 14 24" version="1.1" xmlns="http://www.w3.org/2000/svg" xmlns:xlink="http://www.w3.org/1999/xlink">
    <!-- Generator: Sketch 39 (31667) - http://www.bohemiancoding.com/sketch -->
    <title>international-passport</title>
    <desc>Created with Sketch.</desc>
    <defs></defs>
    <g id="Page-1" stroke="none" stroke-width="1" fill="none" fill-rule="evenodd">
        <g id="Artboard" transform="translate(-657.000000, -96.000000)" fill="#0B5CBB">
            <g id="Group-10" transform="translate(53.000000, 52.000000)">
                <g id="payment-Copy-4" transform="translate(585.000000, 0.000000)">
                    <g id="payment">
                        <g id="international-passport" transform="translate(19.000000, 44.000000)">
                            <g id="Capa_1">
                                <g id="Group">
                                    <path d="M11.8652289,4.51438756 L11.8652289,0.746511917 C11.8652289,0.209309845 11.3326988,-0.151311917 10.8556386,0.0625740933 L0.848385542,4.51936166 C0.886939759,4.51687461 0.927903614,4.51438756 0.966457831,4.51438756 L11.8652289,4.51438756 L11.8652289,4.51438756 Z" id="Shape"></path>
                                    <path d="M13.9760964,22.9856829 L13.9760964,6.25532021 C13.9760964,5.7056829 13.5447711,5.26050155 13.012241,5.26050155 L11.8652048,5.26050155 L0.96886747,5.26050155 C0.436337349,5.26050155 0.00501204819,5.7056829 0.00501204819,6.25532021 L0.00501204819,22.9856829 C0.00501204819,23.1921078 0.065253012,23.3836104 0.16886747,23.5427813 C0.342361446,23.8064083 0.636337349,23.9805016 0.96886747,23.9805016 L13.0122651,23.9805016 C13.5447711,23.9805016 13.9760964,23.5353202 13.9760964,22.9856829 L13.9760964,22.9856829 Z M11.8652289,15.6737658 C11.605012,16.3552166 11.2098313,16.9819772 10.691759,17.5166922 C9.70139759,18.5388684 8.38814458,19.1009161 6.98814458,19.1009161 C5.58812048,19.1009161 4.27486747,18.5388435 3.28453012,17.5166922 C2.29416867,16.4944912 1.74959036,15.1390508 1.74959036,13.6941016 C1.74959036,12.2491026 2.29416867,10.8936622 3.28453012,9.87151088 C4.27489157,8.84933472 5.58814458,8.28726218 6.98814458,8.28726218 C8.38814458,8.28726218 9.70139759,8.84933472 10.691759,9.87151088 C11.2098313,10.4062259 11.605012,11.0304746 11.8652289,11.7144124 C12.1013976,12.3361741 12.2266747,13.0051896 12.2266747,13.6941264 C12.2266747,14.3830632 12.1037831,15.0495171 11.8652289,15.6737658 L11.8652289,15.6737658 Z" id="Shape"></path>
                                    <path d="M9.15438554,14.0646466 L7.352,14.0646466 L7.352,15.6190508 L8.96161446,15.6190508 C9.06763855,15.1340767 9.13272289,14.6093098 9.15438554,14.0646466 L9.15438554,14.0646466 Z" id="Shape"></path>
                                    <path d="M4.10380723,14.0646466 L2.4893494,14.0646466 C2.53272289,14.6143088 2.66766265,15.1390508 2.87971084,15.6190508 L4.27971084,15.6190508 C4.1833012,15.1340767 4.12306024,14.6117969 4.10380723,14.0646466 L4.10380723,14.0646466 Z" id="Shape"></path>
                                    <path d="M10.5423614,10.8215378 C10.0796867,10.2146984 9.47486747,9.72723731 8.77848193,9.41635648 C9.04595181,9.80433575 9.27486747,10.2793617 9.45318072,10.8215378 L10.5423614,10.8215378 L10.5423614,10.8215378 Z" id="Shape"></path>
                                    <path d="M9.658,11.5676518 C9.77848193,12.109828 9.85318072,12.699258 9.87486747,13.3210197 L11.4893253,13.3210197 C11.4411325,12.6942839 11.2724578,12.1023668 11.004988,11.5676518 L9.658,11.5676518 L9.658,11.5676518 Z" id="Shape"></path>
                                    <path d="M7.352,18.2826777 C7.48453012,18.2304249 7.61706024,18.1508642 7.74718072,18.0414342 C8.00739759,17.8225741 8.25320482,17.4917969 8.46043373,17.0814342 C8.57127711,16.860087 8.67004819,16.6238176 8.75438554,16.370114 L7.352,16.370114 L7.352,18.2826777 L7.352,18.2826777 Z" id="Shape"></path>
                                    <path d="M5.5206506,17.0789472 C5.72790361,17.4893098 5.97366265,17.8225741 6.23392771,18.038972 C6.3640241,18.1483772 6.49655422,18.2279876 6.62908434,18.2801907 L6.62908434,16.3651648 L5.2266747,16.3651648 C5.31101205,16.6213306 5.40983133,16.8576 5.5206506,17.0789472 L5.5206506,17.0789472 Z" id="Shape"></path>
                                    <path d="M5.01946988,15.6215378 L6.62910843,15.6215378 L6.62910843,14.0671337 L4.8266988,14.0671337 C4.84838554,14.6093098 4.91342169,15.1340767 5.01946988,15.6215378 L5.01946988,15.6215378 Z" id="Shape"></path>
                                    <path d="M3.29657831,16.3676518 C3.77368675,17.068999 4.43392771,17.6260974 5.20260241,17.9717969 C4.90383133,17.5365637 4.65320482,16.9919005 4.46525301,16.3676518 L3.29657831,16.3676518 L3.29657831,16.3676518 Z" id="Shape"></path>
                                    <path d="M4.8266988,13.3185326 L6.62910843,13.3185326 L6.62910843,11.5651648 L5.06766265,11.5651648 C4.93272289,12.109828 4.85079518,12.7017451 4.8266988,13.3185326 L4.8266988,13.3185326 Z" id="Shape"></path>
                                    <path d="M8.77848193,17.9693098 C9.54715663,17.6260974 10.2074217,17.0665119 10.684506,16.3651648 L9.51583133,16.3651648 C9.33031325,16.9919005 9.07968675,17.5340767 8.77848193,17.9693098 L8.77848193,17.9693098 Z" id="Shape"></path>
                                    <path d="M9.70139759,15.6215378 L11.1013976,15.6215378 C11.3134699,15.1415378 11.4483855,14.616771 11.4917349,14.0671337 L9.87727711,14.0671337 C9.8580241,14.6117969 9.79778313,15.1340767 9.70139759,15.6215378 L9.70139759,15.6215378 Z" id="Shape"></path>
                                    <path d="M5.5206506,10.3067192 C5.43874699,10.4683772 5.3640241,10.6399834 5.29655422,10.8215378 L6.62908434,10.8215378 L6.62908434,9.1029886 C6.49655422,9.15521658 6.3640241,9.23480207 6.23392771,9.34423212 C5.97366265,9.56309223 5.72790361,9.89386943 5.5206506,10.3067192 L5.5206506,10.3067192 Z" id="Shape"></path>
                                    <path d="M4.3206747,11.5676518 L2.97368675,11.5676518 C2.70862651,12.0998549 2.53754217,12.6942839 2.4893494,13.3210197 L4.10380723,13.3210197 C4.12549398,12.699258 4.20019277,12.109828 4.3206747,11.5676518 L4.3206747,11.5676518 Z" id="Shape"></path>
                                    <path d="M8.46043373,10.3067192 C8.25320482,9.89635648 8.00739759,9.56309223 7.74718072,9.34671917 C7.61706024,9.23728912 7.48453012,9.15770363 7.352,9.10547565 L7.352,10.8240249 L8.68450602,10.8240249 C8.61706024,10.6399834 8.54236145,10.4683772 8.46043373,10.3067192 L8.46043373,10.3067192 Z" id="Shape"></path>
                                    <path d="M8.91342169,11.5676518 L7.352,11.5676518 L7.352,13.3210197 L9.15438554,13.3210197 C9.13028916,12.7017451 9.04838554,12.109828 8.91342169,11.5676518 L8.91342169,11.5676518 Z" id="Shape"></path>
                                    <path d="M5.20019277,9.41386943 C4.50380723,9.72475026 3.89898795,10.2122114 3.43633735,10.8190508 L4.52549398,10.8190508 C4.70621687,10.2793617 4.93272289,9.8018487 5.20019277,9.41386943 L5.20019277,9.41386943 Z" id="Shape"></path>
                                </g>
                            </g>
                        </g>
                    </g>
                </g>
            </g>
        </g>
    </g>
</svg>