<?xml version="1.0" encoding="UTF-8" standalone="no"?>
<svg width="33px" height="22px" viewBox="0 0 33 22" version="1.1" xmlns="http://www.w3.org/2000/svg" xmlns:xlink="http://www.w3.org/1999/xlink">
    <!-- Generator: Sketch 39 (31667) - http://www.bohemiancoding.com/sketch -->
    <title>Group</title>
    <desc>Created with Sketch.</desc>
    <defs></defs>
    <g id="Page-1" stroke="none" stroke-width="1" fill="none" fill-rule="evenodd">
        <g id="Artboard" transform="translate(-458.000000, -98.000000)">
            <g id="Group-10" transform="translate(53.000000, 52.000000)">
                <g id="payment" transform="translate(389.000000, 0.000000)">
                    <g id="Group">
                        <g transform="translate(17.000000, 47.000000)">
                            <rect id="Rectangle-path" stroke="#0B5CBB" x="0" y="0" width="31" height="20" rx="2"></rect>
                            <path d="M9.39479147,9.94703718 C9.5725374,9.85900388 9.89101909,9.2991669 9.94458633,8.82644629 C10.0845917,8.81567137 10.3047044,8.68728944 10.3694721,8.18018076 C10.4040473,7.9080569 10.2659899,7.75491561 10.1817432,7.70677238 C10.4091606,7.0627994 10.8815264,5.07058676 9.30810993,4.86448793 C9.14619071,4.5967199 8.73153142,4.46146034 8.19269349,4.46146034 C6.03709829,4.49859941 5.77681014,5.99424899 6.24941946,7.70677238 C6.16541625,7.75491561 6.0271153,7.9080569 6.06169054,8.18018076 C6.12645823,8.68728944 6.34657098,8.81567137 6.48633282,8.82644629 C6.53990006,9.2991669 6.87128661,9.85900388 7.04927601,9.94703718 C7.04927601,10.2847276 7.0626678,10.5426377 7.02711863,10.911965 C6.60052847,11.9919781 3.72226227,11.6886758 3.58931809,13.7712142 L3.58931809,15.0243024 L12.8418446,15.0243024 L12.8418446,13.7712142 C12.7091439,11.6886758 9.84329553,11.9919781 9.41670533,10.911965 C9.38115616,10.5426377 9.39479147,10.2847276 9.39479147,9.94703718 L9.39479147,9.94703718 Z" id="Shape" fill="#0B5CBB"></path>
                            <g id="Group-9" transform="translate(16.000000, 7.000000)" stroke="#0B5CBB">
                                <path d="M0.538650866,3 L11.5226993,3" id="Shape"></path>
                                <path d="M0.538650866,6 L11.5226993,6" id="Shape"></path>
                                <path d="M0.538650866,0 L11.5226993,0" id="Shape"></path>
                            </g>
                        </g>
                    </g>
                </g>
            </g>
        </g>
    </g>
</svg>