<?xml version="1.0" encoding="UTF-8" standalone="no"?>
<svg width="21px" height="24px" viewBox="0 0 21 24" version="1.1" xmlns="http://www.w3.org/2000/svg" xmlns:xlink="http://www.w3.org/1999/xlink">
    <!-- Generator: Sketch 39 (31667) - http://www.bohemiancoding.com/sketch -->
    <title>Group 14</title>
    <desc>Created with Sketch.</desc>
    <defs></defs>
    <g id="Page-1" stroke="none" stroke-width="1" fill="none" fill-rule="evenodd">
        <g id="Artboard" transform="translate(-1045.000000, -97.000000)" fill="#0B5CBB">
            <g id="Group-10" transform="translate(53.000000, 52.000000)">
                <g id="payment-Copy-6" transform="translate(976.000000, 0.000000)">
                    <g id="payment">
                        <g id="Group-14" transform="translate(16.000000, 45.000000)">
                            <path d="M10.4995812,4 C6.91516505,4 4,6.86825702 4,10.3943838 C4,13.4148161 6.99864694,16.5228728 7.08324563,16.6992203 C7.17231159,16.8827097 7.36021563,17 7.56738472,17 L13.8609136,17 C14.0775757,17 14.2732974,16.8717223 14.3562209,16.674224 C14.4285346,16.5033702 17,13.0450905 17,10.3943838 C17.0002792,6.8685317 14.0834389,4 10.4995812,4 L10.4995812,4 Z" id="Shape"></path>
                            <path d="M7.54276714,18 C7.24254907,18 7,18.2245376 7,18.5001302 C7,18.7759833 7.24254907,19 7.54276714,19 L13.4569502,19 C13.7571682,19 14,18.7759833 14,18.5001302 C13.9997173,18.2245376 13.7568856,18 13.4566675,18 L7.54276714,18 Z" id="Shape"></path>
                            <path d="M12.5418479,20 L8.45863008,20 C8.20529611,20 8,20.2232352 8,20.4998698 C8,20.7759833 8.20529611,21 8.45863008,21 L12.5418479,21 C12.7956599,21 13,20.7759833 13,20.4998698 C13,20.2234957 12.7956599,20 12.5418479,20 L12.5418479,20 Z" id="Shape"></path>
                            <path d="M11.542966,22 L9.45774816,22 C9.2049512,22 9,22.2092457 9,22.4676399 C9,23.3126521 9.67341109,24 10.500119,24 C11.3268269,24 12,23.3126521 12,22.4676399 C12,22.2092457 11.7952868,22 11.542966,22 L11.542966,22 Z" id="Shape"></path>
                            <path d="M2.61548223,9 L0.384517766,9 C0.172722415,9 -6.66133815e-16,9.22407504 -6.66133815e-16,9.50026055 C-6.66133815e-16,9.77592496 0.172722415,10 0.384517766,10 L2.61548223,10 C2.82827945,10 3,9.77592496 3,9.50026055 C3,9.22407504 2.82827945,9 2.61548223,9 L2.61548223,9 Z" id="Shape"></path>
                            <path d="M4.90406455,4.44053616 L3.55968747,3.09604713 C3.43109043,2.96798429 3.22393476,2.96798429 3.09619161,3.09604713 C2.96793613,3.22410996 2.96793613,3.43157176 3.09619161,3.55980534 L4.44022714,4.90395287 C4.56797028,5.03201571 4.77597985,5.03201571 4.90406455,4.90395287 C5.03197848,4.77589004 5.03197848,4.56842824 4.90406455,4.44053616 L4.90406455,4.44053616 Z" id="Shape"></path>
                            <path d="M10.5009112,3 C10.7761,2.99959928 11,2.82748948 11,2.61510719 L11,0.384291725 C11,0.172109798 10.7761,-4.4408921e-16 10.5009112,-4.4408921e-16 C10.2244207,-4.4408921e-16 10,0.172109798 10,0.384291725 L10,2.61530755 C10,2.82768984 10.2244207,2.99959928 10.5009112,3 L10.5009112,3 Z" id="Shape"></path>
                            <path d="M17.9038084,3.09608386 C17.7760652,2.96800052 17.5682265,2.96800052 17.439971,3.09591308 L16.0959354,4.44061736 C15.9680215,4.56818837 15.9680215,4.77602493 16.0959354,4.9039375 C16.2240202,5.03202083 16.4311758,5.03202083 16.5594313,4.9039375 L17.9038084,3.55957477 C18.0320639,3.43149143 18.0320639,3.22399642 17.9038084,3.09608386 L17.9038084,3.09608386 Z" id="Shape"></path>
                            <path d="M20.6154816,9 L18.3845177,9 C18.1721213,9 18,9.22407504 18,9.49973945 C18,9.77540386 18.1721213,10 18.3845177,10 L20.6154816,10 C20.8278781,10 21.0004001,9.77540386 20.9999993,9.49973945 C20.9999993,9.22381449 20.8278781,9 20.6154816,9 L20.6154816,9 Z" id="Shape"></path>
                        </g>
                    </g>
                </g>
            </g>
        </g>
    </g>
</svg>