<?xml version="1.0" encoding="UTF-8" standalone="no"?>
<svg width="14px" height="25px" viewBox="0 0 14 25" version="1.1" xmlns="http://www.w3.org/2000/svg" xmlns:xlink="http://www.w3.org/1999/xlink">
    <!-- Generator: Sketch 39 (31667) - http://www.bohemiancoding.com/sketch -->
    <title>Shape</title>
    <desc>Created with Sketch.</desc>
    <defs></defs>
    <g id="Page-1" stroke="none" stroke-width="1" fill="none" fill-rule="evenodd">
        <g id="Desktop-HD-Copy-6" transform="translate(-240.000000, -504.000000)" fill="#0B5CBB">
            <g id="Group-5-Copy" transform="translate(28.000000, 459.000000)">
                <g id="payment-Copy" transform="translate(196.000000, 0.000000)">
                    <g id="payment">
                        <path d="M28.0998004,45.2845737 L17.8722555,45.2845737 C16.8383234,45.2845737 16,46.098945 16,47.1033362 L16,67.9240947 C16,68.9284859 16.8383234,69.7428571 17.8722555,69.7428571 L28.1277445,69.7428571 C29.1616766,69.7428571 30,68.9284859 30,67.9240947 L30,47.1033362 C29.9720559,46.098945 29.1337325,45.2845737 28.0998004,45.2845737 L28.0998004,45.2845737 Z M21.1137725,46.8590248 L24.8303393,46.8590248 C24.9700599,46.8590248 25.0538922,46.9676076 25.0538922,47.0761905 C25.0538922,47.211919 24.9421158,47.2933561 24.8303393,47.2933561 L21.1137725,47.2933561 C20.9740519,47.2933561 20.8902196,47.1847733 20.8902196,47.0761905 C20.8902196,46.9676076 21.001996,46.8590248 21.1137725,46.8590248 L21.1137725,46.8590248 Z M22.9860279,68.8199031 C22.4830339,68.8199031 22.0638723,68.4127174 22.0638723,67.9240947 C22.0638723,67.4354719 22.4830339,67.0282863 22.9860279,67.0282863 C23.489022,67.0282863 23.9081836,67.4354719 23.9081836,67.9240947 C23.9081836,68.4127174 23.489022,68.8199031 22.9860279,68.8199031 L22.9860279,68.8199031 Z M29.0499002,66.1053322 L16.9221557,66.1053322 L16.9221557,48.894953 L29.0219561,48.894953 L29.0219561,66.1053322 L29.0499002,66.1053322 Z" id="Shape"></path>
                    </g>
                </g>
            </g>
        </g>
    </g>
</svg>