<?xml version="1.0" encoding="utf-8"?>
<!-- Generator: Adobe Illustrator 16.0.0, SVG Export Plug-In . SVG Version: 6.00 Build 0)  -->
<!DOCTYPE svg PUBLIC "-//W3C//DTD SVG 1.1//EN" "http://www.w3.org/Graphics/SVG/1.1/DTD/svg11.dtd">
<svg version="1.1" id="Layer_1" xmlns="http://www.w3.org/2000/svg" xmlns:xlink="http://www.w3.org/1999/xlink" x="0px" y="0px"
	 width="106px" height="86px" viewBox="0 0 106 86" enable-background="new 0 0 106 86" xml:space="preserve">
<g>
	<path fill="#F7A53F" d="M84.271,12.457L84.271,12.457c0.523,0,1,0.13,1.465,0.402c0.062,0.038,0.127,0.068,0.187,0.095l0.111,0.084
		l0.206,0.157c0.016,0.017,0.029,0.031,0.042,0.048c0.092,0.105,0.184,0.209,0.271,0.318c0.402,0.506,0.649,1.107,0.756,1.837
		c0.33,2.288,0.49,4.662,0.646,6.959l0.018,0.24l0.055,0.824c0.065,1.007,0.135,2.049,0.231,3.084
		c0.015,0.145,0.005,0.233-0.131,0.41C85.74,30.008,75.302,43.59,74.057,45.221c-0.687,0.09-1.371,0.182-2.057,0.271
		c-0.393,0.051-0.783,0.104-1.174,0.156c-0.034-0.08-0.067-0.158-0.1-0.238c-0.293-0.693-0.59-1.41-0.957-2.12
		c-0.549-1.063-1.275-1.873-2.104-2.691c0.658-0.916,2.042-2.846,3.614-5.043c3.037-4.237,7.197-10.04,7.449-10.372
		c0.49-0.646,0.433-1.556-0.136-2.137c-0.317-0.325-0.741-0.493-1.172-0.493c-0.334,0-0.673,0.103-0.961,0.312
		c-0.293,0.213-0.573,0.459-0.838,0.734c-0.418,0.435-2.72,3.186-6.101,7.253c-0.588-3.803-1.426-9.215-1.613-10.408
		c1.472-1.919,2.939-3.842,4.402-5.765l0,0c3.017-0.563,10.486-1.998,11.188-2.143C83.77,12.484,84.027,12.457,84.271,12.457
		 M84.271,10.818c-0.361,0-0.728,0.041-1.101,0.118c-0.692,0.142-8.131,1.57-11.157,2.136c-0.4,0.074-0.723,0.248-0.971,0.573
		c-1.486,1.95-2.973,3.899-4.465,5.844c-0.268,0.347-0.366,0.721-0.299,1.146c0.207,1.309,1.572,10.125,2.05,13.225
		c0.022,0.16,0.047,0.315,0.223,0.37c0.039,0.013,0.076,0.019,0.11,0.019c0.143,0,0.248-0.098,0.345-0.21
		c0.623-0.745,7.173-8.653,7.8-9.305c0.188-0.197,0.393-0.378,0.616-0.542c-0.385,0.506-10.235,14.268-11.385,15.862
		c-0.39,0.541-0.356,0.899,0.125,1.366c0.817,0.791,1.616,1.59,2.147,2.62c0.474,0.916,0.838,1.873,1.246,2.812
		c0.166,0.379,0.318,0.516,0.644,0.516c0.069,0,0.149-0.008,0.237-0.02c1.313-0.173,2.629-0.349,3.942-0.519
		c0.38-0.052,0.675-0.222,0.913-0.533c0.854-1.123,11.635-15.149,14.13-18.383c0.361-0.47,0.522-0.963,0.466-1.566
		c-0.121-1.287-0.197-2.577-0.283-3.864c-0.168-2.446-0.328-4.893-0.676-7.321c-0.142-0.972-0.482-1.854-1.097-2.625
		c-0.147-0.187-0.312-0.365-0.466-0.546c-0.229-0.174-0.457-0.348-0.688-0.521c-0.041-0.01-0.09-0.01-0.123-0.03
		C85.828,11.013,85.064,10.818,84.271,10.818L84.271,10.818z"/>
	<path fill="#F087B6" d="M51.658,4.337c0.277,0,0.576,0.034,0.887,0.103c0.141,0.03,0.29,0.105,0.452,0.228
		c1.47,1.116,6.358,4.864,7.356,5.673c0.715,0.579,1.405,1.262,2.019,1.865c0.017,0.019,0.083,0.114,0.14,0.573
		c0.026,0.213,0.139,1.144,0.299,2.509c1.838,15.49,2.266,18.856,2.361,19.264c0.049,0.209,0.055,0.459-0.236,0.873
		c-0.271,0.386-0.623,0.757-0.994,1.151c-0.176,0.184-0.35,0.369-0.521,0.557l-0.062,0.07c-0.069,0.077-0.141,0.156-0.211,0.235
		c-1.472-0.765-2.996-0.978-4.215-1.071c-0.494-0.039-0.981-0.058-1.455-0.075c-0.508-3.166-2.721-16.779-2.881-17.73
		c-0.031-0.222-0.123-0.898-0.82-1.439c-0.292-0.228-0.648-0.345-1.004-0.345c-0.261,0-0.523,0.062-0.762,0.188
		c-0.57,0.299-0.911,0.905-0.874,1.546l0.027,0.483c0.019,0.344,0.037,0.666,0.061,0.987l0.202,2.736
		c0.156,2.112,0.294,3.99,0.399,5.408c-2.894-2.087-7.676-5.528-8.479-6.097c0-0.002,0-0.003,0-0.005
		c-0.158-1.157-0.316-2.313-0.475-3.47l-0.401-2.932c-0.037-0.269,0.021-0.48,0.2-0.732c0.289-0.407,0.802-1.144,1.452-2.077
		c1.71-2.458,4.294-6.173,5.194-7.277C49.98,4.717,50.725,4.337,51.658,4.337 M51.658,2.699c-1.416,0-2.631,0.596-3.613,1.801
		c-1.283,1.575-5.647,7.948-6.71,9.439c-0.412,0.577-0.584,1.203-0.489,1.903c0.292,2.133,0.586,4.267,0.876,6.401
		c0.061,0.449,0.246,0.816,0.624,1.083c0.812,0.572,9.99,7.182,10.694,7.697c0.093,0.068,0.187,0.11,0.285,0.11
		c0.057,0,0.115-0.014,0.177-0.046c0.178-0.092,0.173-0.257,0.158-0.432c-0.038-0.44-0.568-7.637-0.802-10.795
		c-0.034-0.458-0.055-0.916-0.086-1.446c0.194,0.15,0.188,0.291,0.208,0.416c0.172,1.013,2.608,16.017,2.947,18.144
		c0.106,0.672,0.386,0.911,1.062,0.938c0.604,0.023,1.214,0.04,1.818,0.088c1.521,0.116,2.99,0.41,4.278,1.311
		c0.101,0.071,0.202,0.106,0.299,0.106c0.144,0,0.278-0.075,0.401-0.221c0.277-0.328,0.564-0.648,0.854-0.967
		c0.553-0.613,1.157-1.181,1.635-1.862c0.471-0.666,0.681-1.388,0.494-2.189c-0.168-0.712-2.496-20.514-2.629-21.599
		c-0.072-0.562-0.195-1.122-0.615-1.539c-0.69-0.681-1.385-1.361-2.137-1.973c-1.021-0.827-5.966-4.615-7.398-5.704
		c-0.328-0.248-0.69-0.437-1.094-0.524C52.466,2.745,52.054,2.699,51.658,2.699L51.658,2.699z"/>
	<path fill="#E65B9C" d="M33.38,20.414c0.078,0,0.169,0.009,0.322,0.126c3.535,2.685,15.139,11.463,17.777,13.394
		c0.271,0.199,0.298,0.299,0.307,0.534c0.028,0.833,0.104,1.655,0.177,2.449c0.004,0.043,0.009,0.087,0.012,0.131
		c-0.117,0.061-0.234,0.121-0.351,0.183c-0.465,0.244-0.904,0.473-1.344,0.67c-1.312,0.583-2.316,1.492-3.201,2.295l-0.094,0.085
		c-2.243-1.562-12.62-8.728-14.446-9.986c-0.411-0.282-0.853-0.434-1.348-0.466c-0.035-0.001-0.069-0.002-0.103-0.002
		c-0.644,0-1.232,0.378-1.496,0.972c-0.279,0.625-0.139,1.358,0.349,1.837c0.04,0.038,0.074,0.075,0.107,0.107
		c0.096,0.099,0.206,0.212,0.347,0.326c0.727,0.597,3.479,2.861,5.72,4.71h-13.1c-0.178-0.128-0.356-0.256-0.533-0.38
		c-0.114-0.082-0.231-0.159-0.349-0.236c-0.171-0.113-0.333-0.218-0.424-0.306c-0.122-0.117-0.292-0.323-0.374-0.766
		c-0.276-1.507-1.744-9.427-2.029-10.673c-0.175-0.762-0.066-1.455,0.342-2.179c0.036-0.065,0.067-0.128,0.092-0.186l0.195-0.257
		l0.232-0.307l0.01-0.008c0.091-0.077,0.182-0.155,0.274-0.229c0.499-0.403,0.84-0.454,1.082-0.454h0.028c0.004,0,0.019,0,0.022,0
		c0.206,0,0.418-0.019,0.634-0.057c2.212-0.387,7.247-0.917,9.666-1.172c0.73-0.077,1.212-0.128,1.401-0.151
		C33.319,20.416,33.351,20.414,33.38,20.414 M33.38,18.775c-0.098,0-0.197,0.006-0.298,0.019c-0.789,0.099-8.24,0.827-11.146,1.335
		c-0.116,0.02-0.234,0.032-0.352,0.032c-0.003,0-0.007,0-0.011,0c-0.013,0-0.026,0-0.039,0c-0.808,0-1.493,0.319-2.111,0.818
		c-0.152,0.123-0.3,0.252-0.45,0.378c-0.228,0.299-0.455,0.598-0.682,0.896c-0.023,0.061-0.038,0.125-0.07,0.181
		c-0.594,1.052-0.787,2.156-0.513,3.35c0.257,1.118,1.573,8.193,2.016,10.604c0.117,0.635,0.378,1.197,0.849,1.65
		c0.288,0.278,0.639,0.468,0.962,0.697c0.319,0.225,0.635,0.455,0.953,0.682h17.965c0.002-0.125-0.073-0.21-0.172-0.292
		c-0.169-0.14-0.325-0.298-0.495-0.439c-1.664-1.381-7.235-5.966-8.353-6.883c-0.11-0.089-0.204-0.198-0.346-0.338
		c0.243,0.016,0.391,0.09,0.525,0.182c1.999,1.377,12.655,8.735,14.563,10.069c0.409,0.286,0.658,0.433,0.89,0.433
		c0.26,0,0.499-0.184,0.917-0.562c0.913-0.825,1.807-1.676,2.96-2.189c0.775-0.345,1.515-0.768,2.275-1.146
		c0.329-0.163,0.471-0.402,0.439-0.77c-0.09-1.021-0.202-2.044-0.236-3.07c-0.028-0.788-0.343-1.336-0.976-1.801
		c-2.7-1.975-14.518-10.917-17.754-13.376C34.289,18.928,33.858,18.775,33.38,18.775L33.38,18.775z"/>
	<path fill="#FFFFFF" d="M47.22,52.803c0,1.596,0.001,3.191-0.001,4.787c0,0.564-0.091,0.686-0.646,0.732
		c-2.414,0.209-4.826,0.475-7.256,0.338c-1.346-0.074-2.673-0.252-3.925-0.795c-2.979-1.289-3.796-5.432-1.499-7.602
		c0.848-0.802,1.912-1.117,3.021-1.314c1.978-0.35,3.963-0.334,5.951-0.1c0.909,0.106,1.036-0.029,0.853-0.916
		c-0.303-1.466-1.176-2.363-2.656-2.605c-1.527-0.248-3.057-0.256-4.567,0.143c-0.455,0.119-0.886,0.301-1.291,0.537
		c-0.28,0.162-0.496,0.096-0.701-0.127c-0.654-0.711-0.606-1.742,0.137-2.408c0.625-0.558,1.399-0.778,2.21-0.856
		c1.447-0.137,2.897-0.218,4.345-0.013c1.653,0.233,3.217,0.681,4.426,1.935c0.957,0.988,1.455,2.182,1.543,3.549
		C47.266,49.658,47.2,51.23,47.22,52.803z M41.538,50.969c-1.101-0.02-2.024-0.029-2.938,0.127c-0.698,0.117-1.4,0.254-1.949,0.746
		c-1.27,1.139-0.804,3.49,0.824,4.115c1.882,0.727,3.816,0.506,5.743,0.232c0.387-0.056,0.597-0.357,0.625-0.738
		c0.095-1.293,0.099-2.588,0.008-3.881c-0.023-0.326-0.212-0.506-0.55-0.557C42.655,50.916,42.007,50.998,41.538,50.969z"/>
	<path fill="#FFFFFF" d="M14.951,50.1c0,2.689-0.001,5.029,0,7.369c0,0.717-0.051,0.803-0.743,0.863
		c-2.426,0.209-4.851,0.48-7.293,0.324c-1.308-0.082-2.602-0.246-3.816-0.793c-2.613-1.17-3.625-4.289-2.195-6.758
		c0.678-1.17,1.776-1.711,3.028-2.002c2.187-0.506,4.393-0.586,6.609-0.207c0.77,0.131,1.119-0.232,0.931-1.004
		c-0.321-1.312-1.087-2.226-2.445-2.492c-1.773-0.353-3.55-0.396-5.289,0.221c-0.292,0.104-0.572,0.244-0.846,0.393
		C2.623,46.158,2.419,46.1,2.22,45.887c-0.679-0.721-0.598-1.834,0.193-2.486c0.466-0.383,1.017-0.587,1.605-0.677
		c2.115-0.324,4.226-0.409,6.317,0.165c1.298,0.356,2.466,0.935,3.334,2.005c0.767,0.949,1.121,2.058,1.208,3.254
		C14.934,48.912,14.964,49.682,14.951,50.1z M11.627,53.551c0.001,0,0.002,0,0.002,0c0-0.648,0.004-1.295-0.001-1.943
		c-0.004-0.498-0.155-0.649-0.646-0.646c-1.209,0.011-2.419,0.027-3.629,0.043c-0.563,0.009-1.125,0.06-1.679,0.166
		c-1.912,0.371-2.734,2.506-1.549,4.027c0.553,0.711,1.337,0.973,2.189,1.098c1.52,0.226,3.034,0.16,4.549-0.063
		c0.65-0.097,0.77-0.234,0.765-0.881C11.624,54.75,11.627,54.15,11.627,53.551z"/>
	<path fill="#FFFFFF" d="M23.843,42.532c1.371-0.021,2.737,0.025,4.062,0.426c0.67,0.204,1.317,0.455,1.839,0.946
		c0.678,0.639,0.646,1.803-0.057,2.4c-0.207,0.176-0.39,0.209-0.644,0.055c-1.772-1.064-3.705-1.469-5.757-1.342
		c-0.742,0.049-1.484,0.082-2.184,0.385c-0.845,0.369-1.219,1.055-1.033,1.94c0.106,0.505,0.44,0.814,0.887,1.017
		c0.675,0.305,1.399,0.412,2.125,0.506c1.651,0.217,3.319,0.336,4.915,0.861c0.782,0.258,1.512,0.612,2.105,1.2
		c1.343,1.33,1.454,3.81,0.231,5.433c-0.902,1.197-2.178,1.811-3.598,2.07c-3.404,0.627-6.683,0.127-9.835-1.271
		c-0.445-0.197-0.482-0.371-0.249-0.785c0.199-0.355,0.376-0.721,0.576-1.078c0.303-0.541,0.56-0.641,1.118-0.373
		c1.974,0.945,4.057,1.277,6.227,1.146c0.599-0.035,1.194-0.117,1.772-0.283c0.831-0.242,1.206-0.693,1.233-1.473
		c0.033-0.941-0.276-1.451-1.115-1.754c-0.921-0.332-1.892-0.423-2.857-0.523c-1.36-0.143-2.723-0.266-4.024-0.73
		c-1.988-0.709-3.038-2.197-2.956-4.275c0.054-1.405,0.751-2.479,1.88-3.279c1.175-0.835,2.525-1.129,3.933-1.212
		C22.906,42.509,23.375,42.532,23.843,42.532z"/>
	<path fill="#FFFFFF" d="M18.092,74.227c-0.013-1.182,0.024-3.285,0.069-5.391c0.033-1.498,0.232-2.977,1.057-4.275
		c1.396-2.196,3.403-3.393,6.022-3.492c1.6-0.059,3.148,0.201,4.552,1.009c2.082,1.192,3.302,3.034,3.673,5.375
		c0.412,2.594-0.333,4.883-2.187,6.771c-2.142,2.185-6.638,3.043-9.632,0.141c-0.074-0.071-0.138-0.219-0.249-0.182
		c-0.116,0.039-0.123,0.193-0.146,0.312c-0.053,0.273-0.032,0.547-0.026,0.822c0.042,1.928,0.003,3.856,0.074,5.785
		c0.031,0.819-0.502,1.356-1.443,1.514c-0.531,0.088-1.026-0.012-1.495-0.275c-0.195-0.109-0.274-0.252-0.273-0.479
		C18.094,79.625,18.092,77.387,18.092,74.227z M21.315,68.445c-0.027,0.979,0.148,1.951,0.636,2.856
		c1.12,2.08,3.717,2.531,5.584,1.769c1.74-0.713,2.56-2.117,2.74-3.949c0.262-2.674-1.439-4.822-4.085-5.17
		C23.716,63.627,21.124,65.416,21.315,68.445z"/>
	<path fill="#FFFFFF" d="M49.23,71.33c0,1.463,0.001,2.93,0,4.393c0,0.521-0.085,0.629-0.594,0.672
		c-2.215,0.191-4.43,0.437-6.66,0.312c-1.236-0.07-2.453-0.234-3.603-0.73c-2.734-1.184-3.484-4.985-1.376-6.979
		c0.78-0.736,1.756-1.025,2.775-1.207c1.814-0.32,3.638-0.307,5.462-0.092c0.834,0.098,0.951-0.025,0.783-0.84
		c-0.278-1.346-1.08-2.17-2.438-2.394c-1.402-0.229-2.806-0.231-4.193,0.132c-0.417,0.11-0.813,0.274-1.185,0.493
		c-0.257,0.147-0.455,0.089-0.643-0.116c-0.601-0.654-0.557-1.601,0.125-2.209c0.574-0.515,1.284-0.716,2.029-0.787
		c1.328-0.125,2.66-0.199,3.988-0.013c1.517,0.214,2.953,0.625,4.062,1.772c0.878,0.912,1.335,2.007,1.416,3.261
		C49.272,68.441,49.212,69.885,49.23,71.33z M44.014,69.645c-1.009-0.018-1.857-0.026-2.697,0.115
		c-0.64,0.109-1.285,0.236-1.789,0.688c-1.166,1.043-0.738,3.202,0.756,3.776c1.729,0.668,3.503,0.465,5.272,0.211
		c0.356-0.049,0.548-0.326,0.574-0.676c0.087-1.188,0.091-2.375,0.007-3.562c-0.021-0.3-0.195-0.466-0.505-0.513
		C45.04,69.598,44.445,69.674,44.014,69.645z"/>
	<path fill="#FFFFFF" d="M54.016,53.426c0,1.369,0.002,2.736,0,4.105c0,0.676-0.138,0.814-0.803,0.771
		c-0.531-0.032-1.052,0.078-1.579,0.087c-0.851,0.012-1.204-0.279-1.151-1.13c0.159-2.543-0.008-5.086,0.084-7.629
		c0.037-0.979,0.1-1.965,0.419-2.909c0.683-2.015,2.147-3.177,4.124-3.769c2.149-0.642,4.298-0.753,6.406,0.152
		c1.565,0.669,2.867,1.643,3.535,3.292c0.26,0.643,0.36,1.315,0.387,2.002c0.021,0.467,0.021,0.936,0.023,1.403
		c0.014,2.591,0.023,5.183,0.037,7.773c0.003,0.602-0.125,0.721-0.736,0.729c-0.467,0.01-0.934,0.059-1.398,0.084
		c-1.063,0.055-1.438-0.318-1.346-1.379c0.227-2.613,0.133-5.229,0.063-7.84c-0.056-2.053-1.117-3.223-3.14-3.613
		c-1.274-0.246-2.457-0.027-3.528,0.719c-1.048,0.73-1.374,1.812-1.396,3.009c-0.025,1.381-0.008,2.762-0.008,4.141
		C54.014,53.426,54.016,53.426,54.016,53.426z"/>
	<path fill="#FFFFFF" d="M65.27,62.867c0.049-0.779-0.274-1.047-1.056-1.035c-0.483,0.006-0.962,0.109-1.45,0.078
		c-0.609-0.039-0.734,0.086-0.736,0.709c-0.002,1.256,0,2.512,0,3.768c0,0,0.002,0,0.004,0c0,1.268,0.018,2.533-0.006,3.801
		c-0.021,1.101-0.319,2.09-1.281,2.763c-0.984,0.684-2.069,0.885-3.239,0.657c-1.854-0.356-2.831-1.432-2.881-3.313
		c-0.065-2.397-0.149-4.799,0.058-7.196c0.086-0.974-0.26-1.318-1.232-1.269c-0.429,0.022-0.855,0.069-1.285,0.078
		c-0.562,0.012-0.679,0.118-0.677,0.67c0.013,2.381,0.022,4.76,0.034,7.137c0.002,0.431,0.003,0.859,0.021,1.289
		c0.025,0.629,0.117,1.246,0.356,1.838c0.611,1.513,1.809,2.404,3.245,3.021c1.936,0.83,3.908,0.729,5.879,0.14
		c0.359-0.106,0.694-0.242,1.015-0.394c-0.011,0.449-0.038,0.896-0.111,1.341c-0.214,1.278-0.923,2.102-2.204,2.42
		c-0.631,0.157-1.24,0.143-1.854-0.045c-0.23-0.068-0.454-0.113-0.612,0.141c-0.353,0.565-0.565,1.164-0.487,1.847
		c0.092,0.823,0.515,1.215,1.348,1.227c0.574,0.008,1.143-0.078,1.709-0.15c1.682-0.219,3.121-0.898,4.188-2.258
		c0.898-1.146,1.264-2.482,1.266-3.916L65.27,62.867z"/>
	<path fill="#F7A53F" d="M103.212,42.665L103.212,42.665c0.375,0.367,0.623,0.794,0.765,1.312c0.019,0.072,0.041,0.14,0.066,0.199
		l0.021,0.139l0.037,0.256c-0.002,0.021-0.004,0.044-0.004,0.064c-0.009,0.139-0.017,0.277-0.031,0.416
		c-0.066,0.643-0.311,1.246-0.746,1.842c-1.365,1.863-2.912,3.672-4.408,5.422l-0.156,0.183l-0.538,0.627
		c-0.659,0.767-1.34,1.558-1.993,2.365c-0.091,0.11-0.158,0.17-0.381,0.2c-3.869,0.537-19.352,2.931-21.384,3.222
		c-0.552-0.414-1.104-0.832-1.655-1.244c-0.316-0.235-0.634-0.476-0.949-0.713c0.033-0.078,0.062-0.158,0.096-0.238
		c0.277-0.696,0.566-1.42,0.801-2.184c0.354-1.146,0.398-2.23,0.383-3.396c1.111-0.193,1.971-0.604,4.633-1.07
		c5.135-0.897,12.168-2.131,12.578-2.192c0.803-0.117,1.399-0.808,1.4-1.619c0.001-0.455-0.188-0.871-0.492-1.172
		c-0.238-0.233-0.552-0.397-0.906-0.451c-0.357-0.053-0.73-0.071-1.111-0.062c-0.604,0.02-4.172,0.375-9.436,0.91
		c2.245-3.127,5.434-7.58,6.135-8.562c2.396-0.34,4.787-0.688,7.18-1.035c0,0,0,0,0.001,0.001c2.549,1.708,8.888,5.914,9.489,6.302
		C102.834,42.333,103.038,42.496,103.212,42.665 M104.357,41.495c-0.258-0.252-0.547-0.48-0.866-0.687
		c-0.593-0.383-6.905-4.57-9.464-6.286c-0.338-0.226-0.689-0.327-1.094-0.269c-2.427,0.352-4.854,0.704-7.279,1.048
		c-0.434,0.061-0.766,0.259-1.016,0.61c-0.771,1.081-5.967,8.333-7.798,10.879c-0.094,0.131-0.185,0.258-0.099,0.42
		c0.02,0.037,0.042,0.065,0.066,0.09c0.103,0.101,0.244,0.104,0.393,0.091c0.968-0.095,11.181-1.156,12.085-1.185
		c0.271-0.008,0.544,0.004,0.819,0.045c-0.631,0.092-15.817,3.022-17.754,3.356c-0.658,0.113-0.886,0.394-0.867,1.064
		c0.027,1.137,0.041,2.268-0.301,3.375c-0.303,0.982-0.713,1.924-1.08,2.881c-0.147,0.385-0.133,0.59,0.102,0.816
		c0.05,0.049,0.109,0.102,0.182,0.154c1.061,0.797,2.119,1.59,3.178,2.389c0.308,0.23,0.638,0.314,1.024,0.26
		c1.397-0.205,17.435-2.674,21.479-3.238c0.588-0.08,1.047-0.32,1.429-0.793c0.813-1.002,1.663-1.975,2.502-2.957
		c1.595-1.863,3.192-3.723,4.644-5.699c0.58-0.793,0.953-1.661,1.056-2.643c0.024-0.236,0.032-0.477,0.05-0.717
		c-0.043-0.283-0.083-0.566-0.125-0.852c-0.023-0.035-0.059-0.07-0.066-0.108C105.335,42.724,104.925,42.05,104.357,41.495
		L104.357,41.495z"/>
	<circle fill="#DFDD09" cx="70.777" cy="62.467" r="0.769"/>
	<circle fill="#DFDD09" cx="70.777" cy="74.936" r="0.769"/>
	<path fill="#DFDD09" d="M97.404,76.98c-0.743-3.814-1.516-7.627-2.12-11.467c-0.104-0.66-0.437-1.207-0.982-1.595
		c-1.853-1.301-3.674-2.646-5.47-4.026c-0.393-0.302-0.811-0.453-1.271-0.453c-0.121,0-0.244,0.01-0.371,0.031
		c-1.045,0.168-9.898,1.463-13.275,1.954c-0.305,0.046-0.605,0.103-0.699,0.451c-0.096,0.351,0.18,0.508,0.401,0.688
		c0.622,0.511,4.774,3.945,6.231,5.148c0.312,0.238,0.625,0.477,0.938,0.715c-0.002,0.002-0.004,0.002-0.009,0.002
		c-0.078,0-0.717-0.379-1.019-0.606c-0.221-0.162-0.44-0.33-0.667-0.488c-1.646-1.151-4.921-3.416-7.764-5.403l-0.35,0.03
		c-0.422,0-0.971,0.08-0.971,0.504v0.513v10.278v1.808v0.25c3.477,2.639,7.145,5.438,9.239,7.053
		c0.797,0.615,1.631,0.934,2.577,0.934c0.174,0,0.352-0.012,0.533-0.033c1.306-0.153,8.711-0.899,11.107-1.113
		C95.621,81.963,97.898,79.514,97.404,76.98z M95.242,79.305c-0.514,0.682-1.266,1.16-1.919,1.217
		c-2.437,0.218-9.878,0.968-11.159,1.121c-0.115,0.015-0.229,0.021-0.338,0.021c-0.561,0-1.045-0.185-1.577-0.593
		c-1.862-1.434-5.296-4.057-8.67-6.622V64.076c2.505,1.752,5.214,3.648,6.573,4.602c0.136,0.096,0.269,0.193,0.398,0.291
		c0.077,0.057,0.154,0.113,0.23,0.17c0.816,0.617,1.486,0.932,1.996,0.932c0.513,0,1.004-0.241,1.312-0.649
		c0.546-0.721,0.406-1.746-0.312-2.295l-0.473-0.356l-0.443-0.338c-0.582-0.48-1.57-1.3-2.594-2.146
		c-0.648-0.535-1.312-1.084-1.893-1.562c3.879-0.568,10.189-1.492,11.072-1.636c0.041-0.006,0.076-0.01,0.109-0.01
		c0.051,0,0.125,0,0.272,0.112c1.841,1.416,3.698,2.785,5.524,4.068c0.181,0.127,0.272,0.279,0.309,0.508
		c0.521,3.312,1.174,6.646,1.806,9.865l0.324,1.662C95.969,78.174,95.521,78.932,95.242,79.305z"/>
</g>
</svg>
